<?xml version="1.0" encoding="utf-8"?>
<!-- Generator: Adobe Illustrator 18.0.0, SVG Export Plug-In . SVG Version: 6.00 Build 0)  -->
<!DOCTYPE svg PUBLIC "-//W3C//DTD SVG 1.1//EN" "http://www.w3.org/Graphics/SVG/1.1/DTD/svg11.dtd">
<svg version="1.1" id="Layer_1" xmlns="http://www.w3.org/2000/svg" xmlns:xlink="http://www.w3.org/1999/xlink" x="0px" y="0px"
	 viewBox="0 0 200 90" enable-background="new 0 0 200 90" xml:space="preserve">
<g>
	<rect fill="#353635" width="200" height="90"/>
	<g>
		<g>
			<path fill="#FFFFFF" d="M14.3,77.7V40.1h11.1c6.6,0,9.9,3.6,9.9,10.7c0,3.5-0.9,6-2.7,7.7c-1.8,1.6-4.3,2.4-7.6,2.4h-3.6v16.8
				H14.3z M21.3,56.1h2.3c2,0,3.3-0.4,4-1.1s1-2.2,1-4.2c0-1.2,0-2.1-0.1-2.7c-0.1-0.6-0.3-1.2-0.7-1.7c-0.3-0.5-0.8-0.9-1.5-1.1
				c-0.7-0.2-1.6-0.3-2.7-0.3h-2.3V56.1z"/>
		</g>
		<g>
			<path fill="#FFFFFF" d="M20.6,33c-1,0-1.8-0.1-2.5-0.4c-0.7-0.2-1.3-0.6-1.8-1c-0.5-0.4-0.9-0.9-1.2-1.6c-0.3-0.6-0.5-1.3-0.6-2
				c-0.1-0.7-0.2-1.5-0.2-2.4v-7.5c0-0.9,0.1-1.8,0.2-2.5c0.1-0.7,0.3-1.4,0.6-2c0.3-0.6,0.7-1.1,1.2-1.5c0.5-0.4,1.1-0.7,1.8-0.9
				c0.7-0.2,1.6-0.3,2.5-0.3c1.1,0,2,0.1,2.8,0.4c0.8,0.3,1.4,0.7,1.9,1.3c0.5,0.6,0.8,1.2,1,1.9c0.2,0.7,0.3,1.6,0.3,2.6V19h-3.9
				v-1.8c0-1.1-0.1-1.8-0.2-2.2c-0.2-0.7-0.8-1.1-1.7-1.2c-0.1,0-0.1,0-0.2,0c-0.3,0-0.6,0-0.9,0.1c-0.3,0.1-0.5,0.2-0.6,0.4
				c-0.2,0.2-0.3,0.3-0.4,0.5c-0.1,0.2-0.2,0.4-0.2,0.7c0,0.3-0.1,0.6-0.1,0.9s0,0.6,0,1v9.1c0,1.3,0.2,2.2,0.5,2.7
				c0.3,0.5,0.9,0.8,1.7,0.8c0.3,0,0.5,0,0.8-0.1c0.2-0.1,0.4-0.1,0.5-0.2c0.1-0.1,0.3-0.2,0.4-0.4c0.1-0.2,0.2-0.4,0.2-0.5
				c0.1-0.2,0.1-0.4,0.1-0.7c0-0.3,0-0.5,0-0.7c0-0.2,0-0.5,0-0.8v-1.9h3.9v1.8c0,0.8-0.1,1.5-0.2,2.2c-0.1,0.6-0.3,1.2-0.6,1.8
				c-0.3,0.6-0.6,1-1.1,1.4c-0.4,0.4-1,0.7-1.7,0.9S21.5,33,20.6,33z"/>
			<path fill="#FFFFFF" d="M30.9,33c-0.9,0-1.6-0.3-2-1c-0.4-0.6-0.6-1.4-0.6-2.4V17.3h3.7v11.6c0,0.5,0.1,0.8,0.2,1.1
				c0.2,0.2,0.4,0.3,0.8,0.3c0.4,0,1-0.2,1.6-0.7V17.3h3.7v15.4h-3.7v-1.4C33.5,32.4,32.2,33,30.9,33z"/>
			<path fill="#FFFFFF" d="M44.8,33c-1.3,0-2.4-0.4-3.2-1.1c-0.8-0.7-1.4-1.7-1.7-3.1l2.8-1c0.2,0.9,0.5,1.5,0.8,1.9
				c0.4,0.4,0.8,0.6,1.3,0.6c0.4,0,0.7-0.1,1-0.4c0.3-0.3,0.4-0.6,0.4-1c0-0.6-0.6-1.3-1.6-2.1l-2.1-1.8c-1.5-1.3-2.3-2.6-2.2-4
				c0-1.2,0.5-2.2,1.3-3c0.8-0.7,1.9-1.1,3.2-1.1c1.2,0,2.2,0.4,3,1.1c0.8,0.7,1.3,1.7,1.5,2.9l-2.5,1c-0.3-1.6-1-2.4-1.9-2.4
				c-0.4,0-0.7,0.1-0.9,0.4c-0.2,0.2-0.4,0.5-0.4,0.9c0,0.5,0.4,1.1,1.3,1.8l2.2,1.9c0.4,0.3,0.7,0.6,0.9,0.8
				c0.2,0.2,0.5,0.5,0.8,0.9c0.3,0.4,0.5,0.7,0.6,1.1c0.1,0.4,0.2,0.8,0.2,1.3c0,1.3-0.4,2.3-1.3,3C47.3,32.6,46.2,33,44.8,33z"/>
			<path fill="#FFFFFF" d="M55.2,32.9c-0.7,0-1.3-0.1-1.8-0.4c-0.5-0.2-0.9-0.5-1.2-1c-0.3-0.4-0.5-0.9-0.6-1.4s-0.2-1.1-0.2-1.8
				v-8.7h-1.6v-2.4h1.6v-4.5h3.8v4.5h2.4v2.4h-2.4v8.9c0,0.5,0.1,0.9,0.3,1.1c0.2,0.2,0.6,0.3,1.1,0.3c0.3,0,0.7,0,1.1-0.1v2.8
				C56.7,32.9,55.9,33,55.2,32.9z"/>
			<path fill="#FFFFFF" d="M64,33c-1.7,0-3-0.5-3.8-1.4c-0.8-0.9-1.2-2.3-1.2-4v-5.1c0-1.7,0.4-3.1,1.2-4c0.8-0.9,2.1-1.4,3.8-1.4
				c1.7,0,3,0.5,3.8,1.4c0.8,0.9,1.3,2.3,1.3,4v5.1c0,1.7-0.4,3.1-1.3,4C67,32.5,65.7,33,64,33z M64,30.4c0.3,0,0.6-0.1,0.7-0.2
				c0.2-0.1,0.3-0.3,0.4-0.6c0.1-0.3,0.1-0.5,0.2-0.8c0-0.3,0-0.6,0-1v-5.6c0-0.3,0-0.6,0-0.8c0-0.2,0-0.4-0.1-0.7
				c0-0.3-0.1-0.4-0.2-0.6c-0.1-0.1-0.2-0.3-0.4-0.4c-0.2-0.1-0.4-0.1-0.6-0.1c-0.3,0-0.6,0.1-0.7,0.2c-0.2,0.1-0.3,0.3-0.4,0.6
				c-0.1,0.3-0.1,0.5-0.2,0.8c0,0.3,0,0.6,0,1v5.6c0,0.3,0,0.6,0,0.8c0,0.2,0,0.4,0.1,0.7c0,0.2,0.1,0.4,0.2,0.6
				c0.1,0.1,0.2,0.3,0.4,0.4C63.6,30.4,63.8,30.4,64,30.4z"/>
			<path fill="#FFFFFF" d="M71,32.7V17.3h3.6v1.4c1.1-1.1,2.3-1.6,3.8-1.6c1.3,0,2.2,0.6,2.6,1.9c1.1-1.3,2.4-1.9,4-1.9
				c0.9,0,1.6,0.3,2.1,0.9s0.8,1.5,0.8,2.7v12h-3.6V21c0-0.6-0.1-1-0.3-1.2c-0.2-0.2-0.5-0.3-0.8-0.3c-0.7,0-1.3,0.3-2,0.9
				c0,0,0,0.1,0,0.2c0,0.1,0,0.1,0,0.2v12h-3.5V21c0-0.6-0.1-1-0.3-1.2c-0.2-0.2-0.5-0.3-0.9-0.3c-0.6,0-1.3,0.3-2,0.9v12.3H71z"/>
			<path fill="#FFFFFF" d="M96.1,32.7V11.1h5.1c1.2,0,2.2,0.1,3,0.3c0.8,0.2,1.6,0.5,2.2,0.9c0.6,0.4,1.1,1,1.4,1.8
				c0.3,0.8,0.5,1.7,0.5,2.8c0,1.4-0.2,2.5-0.6,3.3c-0.4,0.9-1.1,1.5-2.1,1.9l3.1,10.6h-4l-2.6-9.9h-1.8v9.9H96.1z M100.2,20.4h1
				c1.2,0,2-0.2,2.5-0.7c0.5-0.5,0.8-1.3,0.8-2.5c0-1.2-0.2-2-0.7-2.5c-0.4-0.5-1.2-0.7-2.4-0.7h-1.2V20.4z"/>
			<path fill="#FFFFFF" d="M115.2,33c-1.8,0-3.1-0.5-3.9-1.5c-0.8-1-1.2-2.4-1.2-4.3v-4.4c0-1.9,0.4-3.3,1.2-4.3
				c0.8-1,2.1-1.5,3.9-1.5c0.9,0,1.7,0.1,2.4,0.4c0.6,0.3,1.1,0.7,1.5,1.2c0.4,0.5,0.6,1.2,0.8,1.9c0.2,0.7,0.2,1.6,0.2,2.6v2h-6.3
				v2.3c0,0.3,0,0.6,0,0.7c0,0.2,0,0.4,0,0.6c0,0.3,0.1,0.4,0.1,0.6c0.1,0.1,0.1,0.3,0.2,0.4c0.1,0.1,0.2,0.2,0.4,0.3
				c0.2,0.1,0.3,0.1,0.6,0.1c0.5,0,0.8-0.2,1-0.5c0.2-0.3,0.3-0.8,0.3-1.5v-0.9h3.5V28c0,1.6-0.4,2.8-1.2,3.7
				C118,32.6,116.8,33,115.2,33z M113.8,23.4h2.7v-1.5c0-0.8-0.1-1.3-0.3-1.7s-0.6-0.5-1.1-0.5c-0.5,0-0.9,0.2-1.1,0.6
				c-0.2,0.4-0.3,1.1-0.3,2.1V23.4z"/>
			<path fill="#FFFFFF" d="M126.1,33c-1.3,0-2.4-0.4-3.2-1.1c-0.8-0.7-1.4-1.7-1.7-3.1l2.8-1c0.2,0.9,0.5,1.5,0.8,1.9
				c0.4,0.4,0.8,0.6,1.3,0.6c0.4,0,0.7-0.1,1-0.4c0.3-0.3,0.4-0.6,0.4-1c0-0.6-0.6-1.3-1.6-2.1l-2.1-1.8c-1.5-1.3-2.3-2.6-2.2-4
				c0-1.2,0.5-2.2,1.3-3c0.8-0.7,1.9-1.1,3.2-1.1c1.2,0,2.2,0.4,3,1.1c0.8,0.7,1.3,1.7,1.5,2.9l-2.5,1c-0.3-1.6-1-2.4-1.9-2.4
				c-0.4,0-0.7,0.1-0.9,0.4c-0.2,0.2-0.4,0.5-0.4,0.9c0,0.5,0.4,1.1,1.3,1.8l2.2,1.9c0.4,0.3,0.7,0.6,0.9,0.8
				c0.2,0.2,0.5,0.5,0.8,0.9c0.3,0.4,0.5,0.7,0.6,1.1c0.1,0.4,0.2,0.8,0.2,1.3c0,1.3-0.4,2.3-1.3,3C128.6,32.6,127.4,33,126.1,33z"
				/>
			<path fill="#FFFFFF" d="M136.9,33c-1.8,0-3.1-0.5-3.9-1.5c-0.8-1-1.2-2.4-1.2-4.3v-4.4c0-1.9,0.4-3.3,1.2-4.3
				c0.8-1,2.1-1.5,3.9-1.5c0.9,0,1.7,0.1,2.4,0.4c0.6,0.3,1.1,0.7,1.5,1.2c0.4,0.5,0.6,1.2,0.8,1.9c0.2,0.7,0.2,1.6,0.2,2.6v2h-6.3
				v2.3c0,0.3,0,0.6,0,0.7c0,0.2,0,0.4,0,0.6c0,0.3,0.1,0.4,0.1,0.6c0.1,0.1,0.1,0.3,0.2,0.4c0.1,0.1,0.2,0.2,0.4,0.3
				c0.2,0.1,0.3,0.1,0.6,0.1c0.5,0,0.8-0.2,1-0.5c0.2-0.3,0.3-0.8,0.3-1.5v-0.9h3.5V28c0,1.6-0.4,2.8-1.2,3.7S138.5,33,136.9,33z
				 M135.6,23.4h2.7v-1.5c0-0.8-0.1-1.3-0.3-1.7c-0.2-0.3-0.6-0.5-1.1-0.5c-0.5,0-0.9,0.2-1.1,0.6c-0.2,0.4-0.3,1.1-0.3,2.1V23.4z"
				/>
			<path fill="#FFFFFF" d="M146.7,33c-1,0-1.8-0.4-2.5-1.1c-0.6-0.8-1-1.6-1-2.5c0-0.9,0.2-1.7,0.5-2.3c0.3-0.7,0.8-1.2,1.5-1.7
				c0.7-0.5,1.3-0.8,1.7-1c0.5-0.2,1.2-0.5,2.1-0.9c0.3-0.1,0.5-0.2,0.6-0.2v-1.3c0-0.7-0.1-1.2-0.2-1.5c-0.2-0.3-0.5-0.5-1-0.5
				c-0.8,0-1.3,0.6-1.3,1.7l-0.1,1l-3.6-0.1c0-0.1,0-0.1,0-0.3c0-0.1,0-0.2,0-0.3c0.1-1.6,0.6-2.8,1.5-3.6c0.9-0.8,2.1-1.1,3.7-1.1
				c1.6,0,2.7,0.4,3.5,1.2c0.8,0.8,1.1,2,1.1,3.5v7c0,1.2,0.1,2.5,0.3,3.9h-3.4c-0.2-1-0.3-1.8-0.4-2.3c-0.2,0.7-0.6,1.3-1.1,1.8
				C148.2,32.7,147.5,33,146.7,33z M148.2,30.2c0.3,0,0.6-0.1,0.8-0.3c0.3-0.2,0.5-0.4,0.7-0.6V25c-1.9,1-2.8,2.1-2.8,3.4
				c0,0.6,0.1,1,0.3,1.3C147.4,30,147.8,30.2,148.2,30.2z"/>
			<path fill="#FFFFFF" d="M155.4,32.7V17.3h3.7v2.4c0.5-0.9,1.1-1.6,1.6-2c0.5-0.4,1.1-0.6,1.7-0.6c0.2,0,0.4,0,0.6,0.1v3.6
				c-0.4-0.2-0.9-0.2-1.3-0.2c-0.5,0-1,0.1-1.4,0.4c-0.4,0.2-0.8,0.6-1.2,1.2v10.6H155.4z"/>
			<path fill="#FFFFFF" d="M168.8,33c-1.8,0-3.1-0.5-3.9-1.5c-0.8-1-1.2-2.4-1.2-4.3v-4.5c0-1.9,0.4-3.3,1.2-4.2
				c0.8-1,2.1-1.5,3.9-1.5c1.7,0,2.9,0.4,3.7,1.2c0.8,0.8,1.1,2,1.1,3.6v1.3h-3.5v-1.3c0-0.8-0.1-1.3-0.3-1.6
				c-0.2-0.3-0.5-0.5-1-0.5c-0.5,0-0.9,0.2-1.1,0.5c-0.2,0.4-0.3,1-0.3,2v5.6c0,1,0.1,1.6,0.3,2c0.2,0.3,0.5,0.5,1,0.5
				c0.5,0,0.8-0.2,1-0.5c0.2-0.3,0.3-0.8,0.3-1.5v-1.7h3.5v1.5c0,1.6-0.4,2.8-1.2,3.6C171.7,32.6,170.5,33,168.8,33z"/>
			<path fill="#FFFFFF" d="M175.5,32.7V11.1h3.7v7.7c1.2-1.2,2.6-1.7,3.9-1.7c0.4,0,0.7,0.1,1,0.2c0.3,0.1,0.5,0.3,0.7,0.5
				c0.2,0.2,0.4,0.5,0.5,0.8c0.1,0.3,0.2,0.6,0.3,0.9c0.1,0.3,0.1,0.6,0.1,1v12.3H182V21.2c0-0.5-0.1-0.8-0.2-1.1
				c-0.1-0.2-0.4-0.3-0.8-0.3c-0.5,0-1.1,0.3-1.7,0.8v12.2H175.5z"/>
		</g>
		<g>
			<path fill="#FFFFFF" d="M98.4,77.7V40.1h11.1c6.6,0,9.9,3.6,9.9,10.7c0,3.5-0.9,6-2.7,7.7c-1.8,1.6-4.3,2.4-7.6,2.4h-3.6v16.8
				H98.4z M105.5,56.1h2.3c2,0,3.3-0.4,4-1.1c0.7-0.8,1-2.2,1-4.2c0-1.2,0-2.1-0.1-2.7c-0.1-0.6-0.3-1.2-0.7-1.7
				c-0.3-0.5-0.8-0.9-1.5-1.1c-0.7-0.2-1.6-0.3-2.7-0.3h-2.3V56.1z"/>
			<path fill="#FFFFFF" d="M121.9,77.7V40.1h16.1V45H129v10.8h7.2v4.8H129V73h9.2v4.7H121.9z"/>
			<path fill="#FFFFFF" d="M141.1,77.7V40.1h8.8c2,0,3.8,0.2,5.2,0.5c1.5,0.3,2.7,0.9,3.8,1.6c1.1,0.8,1.9,1.8,2.4,3.1
				c0.5,1.3,0.8,2.9,0.8,4.8c0,2.4-0.4,4.3-1.1,5.8s-1.9,2.6-3.6,3.3l5.3,18.5h-7l-4.6-17.2h-3.1v17.2H141.1z M148.1,56.2h1.7
				c2.1,0,3.6-0.4,4.4-1.3c0.9-0.9,1.3-2.3,1.3-4.4c0-2-0.4-3.4-1.1-4.3c-0.8-0.9-2.2-1.3-4.2-1.3h-2.1V56.2z"/>
			<path fill="#FFFFFF" d="M176,78.2c-6.8,0-10.4-3.8-10.7-11.5l6.1-1.2c0.2,5,1.6,7.5,4.4,7.5c1.1,0,1.9-0.3,2.4-1
				c0.5-0.6,0.8-1.5,0.8-2.6c0-1-0.2-2-0.6-2.9c-0.4-0.9-0.8-1.6-1.3-2.1c-0.5-0.6-1.2-1.2-2.2-2.1l-5.1-4.3c-1.5-1.3-2.6-2.6-3.3-4
				c-0.7-1.4-1.1-3.1-1.1-5.1c0-2.9,0.9-5.2,2.6-6.8c1.8-1.6,4.2-2.4,7.2-2.5c1.4,0,2.7,0.2,3.7,0.5c1.1,0.4,2,0.8,2.7,1.4
				c0.7,0.6,1.3,1.3,1.8,2.2c0.5,0.9,0.8,1.8,1.1,2.8c0.2,1,0.4,2,0.5,3.2l-6,1.2c0-0.8-0.1-1.4-0.2-2c-0.1-0.6-0.2-1.1-0.4-1.7
				c-0.2-0.6-0.4-1-0.7-1.4c-0.3-0.4-0.6-0.6-1.1-0.9c-0.5-0.2-1-0.3-1.6-0.2c-1,0.1-1.8,0.4-2.4,1c-0.6,0.6-0.8,1.4-0.8,2.5
				c0,1.2,0.2,2.2,0.7,3c0.5,0.8,1.3,1.6,2.3,2.5l5,4.3c0.8,0.7,1.6,1.5,2.2,2.2c0.6,0.7,1.2,1.5,1.8,2.4c0.6,0.9,1,1.9,1.3,2.9
				c0.3,1.1,0.4,2.2,0.4,3.4c0,2.7-0.9,5-2.7,6.7C181.2,77.3,178.9,78.2,176,78.2z"/>
		</g>
		<path fill="#FAA62A" d="M85.4,40.5c-0.2-0.2-0.5-0.2-0.7-0.1L43.1,59.3c-0.2,0.1-0.4,0.3-0.4,0.6c0,0.2,0.1,0.5,0.4,0.6l11.8,5.6
			c0.2,0.1,0.5,0.1,0.7-0.1L67,57.7l-9,9c-0.1,0.1-0.2,0.3-0.2,0.5l0.9,11.4c0,0.3,0.2,0.5,0.4,0.5c0.1,0,0.1,0,0.2,0
			c0.2,0,0.4-0.1,0.5-0.2l6.3-7.1l7.7,3.6c0.2,0.1,0.4,0.1,0.5,0c0.2-0.1,0.3-0.2,0.4-0.4l10.9-33.9C85.7,41,85.6,40.7,85.4,40.5
			L85.4,40.5z"/>
	</g>
</g>
</svg>
